PathFileType	4	(X/Y/Z)	59_1_47_p1_0-315.trc
DataRate	CameraRate	NumFrames	NumMarkers	Units	OrigDataRate	OrigDataStartFrame	OrigNumFrames
48.0	48.0	7	27	m	48.0	39	316
Frame#	Time	RHip			RKnee			RAnkle			RBigToe			RSmallToe			RHeel			LHip			LKnee			LAnkle			LBigToe			LSmallToe			LHeel			Neck			Head			Nose			RShoulder			RElbow			RWrist			RThumb			RIndex			RPinky			LShoulder			LElbow			LWrist			LThumb			LIndex			LPinky			
		X1	Y1	Z1	X2	Y2	Z2	X3	Y3	Z3	X4	Y4	Z4	X5	Y5	Z5	X6	Y6	Z6	X7	Y7	Z7	X8	Y8	Z8	X9	Y9	Z9	X10	Y10	Z10	X11	Y11	Z11	X12	Y12	Z12	X13	Y13	Z13	X14	Y14	Z14	X15	Y15	Z15	X16	Y16	Z16	X17	Y17	Z17	X18	Y18	Z18	X19	Y19	Z19	X20	Y20	Z20	X21	Y21	Z21	X22	Y22	Z22	X23	Y23	Z23	X24	Y24	Z24	X25	Y25	Z25	X26	Y26	Z26	X27	Y27	Z27	
39	0.8125	0.32474747658747677	0.5328087408434058	1.057548508281214	0.3153343115626662	0.6048874355144275	1.477189402279703	0.3162471940905607	0.7430170130695039	1.9007359730960462	0.2770260502808718	0.5599010300273233	1.938779243996717	0.3392393248219063	0.5761781610144893	1.9252751291551684	0.29180568514513583	0.8580516594705088	1.973220719440575	0.10932594907561169	0.5220801491632819	1.0659610684383005	0.11679694866636428	0.6343549352314237	1.5186640657631463	0.10479994191697584	0.7433526583605653	1.8856615182450331	0.12240771101606532	0.5725513122521113	1.936776404128848	0.06965437537774555	0.6215322834945158	1.930537024247469	0.12273818697853509	0.7842854521758502	1.9290441351790315	0.24432122979642126	0.4125463574542743	0.4920662691169963	0.24134554413485748	0.3543403338186407	0.24791110944223638	0.24652173989642437	0.3151340754278282	0.38413146200332243	0.39958931401685566	0.428389242714416	0.6034092297663605	0.45342746743416007	0.24093221688298855	0.8292363146686283	0.32946403927159945	0.05901837070306015	0.7925906807379366	0.23644792816816096	0.05521032078944123	0.7484173184256977	0.23634382216773805	0.035249625657145775	0.7600616715997023	0.25631154436664294	0.05470353409735765	0.8071961519883216	0.07821886794590228	0.4524187674001714	0.5901951262022631	0.019293414497841277	0.4150086805420871	0.8284330336729262	0.09239120902547014	0.3441139181189899	1.0543589954103705	0.1617643273345271	0.3315320272516225	1.1471031019108595	0.1456014242982035	0.3171353110290043	1.1612236658479203	0.09693145653502827	0.3352090754832128	1.174682858470889
40	0.8333333333333334	0.33163384417094904	0.5333353483218771	1.0573014994798609	0.31530807036778963	0.6050298515913971	1.4769739464541962	0.3122871170269387	0.7277211624385644	1.8948730109787018	0.2779997439478439	0.5625921341121662	1.9438113436766353	0.3351751864732651	0.5921852615489452	1.9322348469419472	0.28755093227989487	0.8422298823580422	1.9667863592355288	0.10757958564853959	0.5194078387734298	1.054710882635539	0.11215357219169385	0.6343849792480342	1.5147896516877524	0.10477642417276094	0.7436009543703354	1.8858436004375232	0.11639644043095757	0.5916276508940375	1.9441085920714587	0.06964057802181275	0.621751317673231	1.9306646555194302	0.12004727736676535	0.7744949999794238	1.9248764993204983	0.24451261495739945	0.4118943293562712	0.4955616309020605	0.24497110733558486	0.33975992222747875	0.2500725997170982	0.2503889148835324	0.3010063966469232	0.3854319555936154	0.3991236452656649	0.42638203889041626	0.5999294305276539	0.4573925330981684	0.24149166604311734	0.8189724448649731	0.33147684157849777	0.058615864279850896	0.7650267337241288	0.247143565889698	0.05164772940645224	0.7032294955390442	0.24036577249629415	0.029928246683807763	0.7178079382278393	0.2565744913483624	0.04383907615110292	0.7694047527923953	0.07833449527640786	0.45296890487441205	0.59011195124218	0.017083471195373408	0.4412384850205469	0.8304301951302423	0.08836152456848242	0.3443487864294062	1.0582135519817009	0.14092319970964778	0.34542384465263787	1.15274465610651	0.11902354075812957	0.35405998303646974	1.1679963080681477	0.0810840072537822	0.34433125051661784	1.1731642686621604
41	0.8541666666666666	0.3273834511907016	0.5496500411814115	1.0637173514075888	0.32026242281845474	0.6073910162790747	1.4774200153747026	0.31233166214486763	0.7275335110454352	1.8945922825118742	0.2779664390259136	0.5624912864712517	1.943824989288759	0.3352380031268386	0.59232589728234	1.9322920375819943	0.28755974903891035	0.8420165488449166	1.9667594176873855	0.1067216025969247	0.5211411621871025	1.058423321361863	0.11031833420048807	0.6286401341153843	1.5035136724885916	0.10473011113563487	0.7434785865560766	1.8855226610272844	0.11652974969974883	0.5919157742231517	1.9441452423036893	0.06960837360144287	0.6219441959999281	1.930706341503347	0.12249342527591911	0.7864342682403419	1.925211092357013	0.24422208684980473	0.4101174055258837	0.4921830526129317	0.24488206541071675	0.3402986504231137	0.24652977699874415	0.2504247923384709	0.30095493674260826	0.38541467172197497	0.4025279320125187	0.4113300945477613	0.5961843666303355	0.45962488419642855	0.2176236964705295	0.8099735776599829	0.3345327348531353	0.04683584333119774	0.7583627395329082	0.24554815584591608	0.049711089207876986	0.690743181748654	0.24330877965766362	0.030313776629600588	0.7007022260991199	0.2526731660587222	0.03880949364580942	0.7550977387802423	0.07830767663802633	0.452663602722288	0.5901803051819138	0.016806685032171476	0.4409747089020787	0.8305107645985844	0.08364937615153833	0.34046041401167226	1.0542281045455963	0.12320062244317702	0.36994921149202803	1.1574895212988456	0.10681974100503897	0.36726176657617887	1.1670353651323606	0.06945969957858233	0.3303463040059103	1.1714017015061025
42	0.875	0.3262520309278133	0.553173264791751	1.0606363989852035	0.31356038648851936	0.6087073744193311	1.4861336740424862	0.31239929448781006	0.7277567613871354	1.8943922112845375	0.27413367313504333	0.5487192971321068	1.9382176743359698	0.3363569800973903	0.5941828744164682	1.9376522901009035	0.29214288054840937	0.8438359009622981	1.9670070256801369	0.09675495895032711	0.5409104214553915	1.0498157874075003	0.10645856961838161	0.6298193569637364	1.5084922464915498	0.10372251857466928	0.7405467059323046	1.8798939678588864	0.11660675060170778	0.5921611755287436	1.9442706056848458	0.06845460414699138	0.6233370288275701	1.9351169494954914	0.12249345339593776	0.7862629720666418	1.925103473904022	0.2486655169658146	0.3985463563080139	0.49936210702651873	0.24487663555500036	0.34028362302061205	0.24646803969406061	0.25476974680768877	0.30276970013926363	0.3886123767598225	0.4017409424530988	0.38536483112130926	0.595791367458193	0.4628348463988623	0.2054940730767096	0.7973191500615724	0.33366714096979355	0.034686859346283974	0.7171452314517655	0.249570197751479	0.06479163855586369	0.6796809667498127	0.23841878574578904	0.03510153036872947	0.6773541088672855	0.25233680045548745	0.032940790788707784	0.7128125114734865	0.081704787419643	0.4653174008989466	0.5934866338074714	0.004605222111544462	0.4407918488396192	0.834551887221709	0.06998400948721419	0.36772583918082524	1.067133456503037	0.10965813213038306	0.378743441939098	1.1668427377748338	0.10165022245602164	0.36505554193133977	1.1852589670683655	0.032744359517390784	0.3551550128031525	1.1940815450889322
43	0.8958333333333334	0.3256750123904819	0.5542517879021719	1.064679139761521	0.31324072502545436	0.6102935548903814	1.4822128832688575	0.31248745423959334	0.7277210911854836	1.8939195910453712	0.2740611406665238	0.548599185756211	1.9381775778014265	0.33633458033463864	0.5939418739208414	1.9376691978724214	0.2921205764754089	0.8436494820368357	1.966848681790488	0.0933577276457671	0.526923276904138	1.055392145159788	0.106312908975389	0.6297434125888124	1.508587621259635	0.10369964518470018	0.7405104997649088	1.8798001479312276	0.11662489601636085	0.5919272800845329	1.9441498245337472	0.06363869549866107	0.6379377174928302	1.9415056613417991	0.1224508106977991	0.78630078632684	1.924959985367581	0.248224662384295	0.3972853001040519	0.49236759982499073	0.24486489251162072	0.3401125568744148	0.24636219039079266	0.2543401237171661	0.3017499184138514	0.38162946426763394	0.4049223053531749	0.3714013703436875	0.5956922791500192	0.46541383851236007	0.20376743329671906	0.7855918717279348	0.3396099354833269	0.04024866438933809	0.6970502907025428	0.2522767485642108	0.07108847029740707	0.6698651997145372	0.2363832780277778	0.041045997701228513	0.6689736318619467	0.24154662096842328	0.04527343344035525	0.6956650566902873	0.08175081579471903	0.4651146547735179	0.593570790575888	0.004672908892883141	0.44299782933434717	0.8385036059691318	0.05766672947542771	0.3668216940120654	1.0670098694739003	0.10863987412467303	0.3767429356506755	1.162337077754751	0.09856492098860177	0.3636571521433291	1.1887410188083338	0.024255059409780292	0.35791405188180164	1.1903947904043268
44	0.9166666666666666	0.3293042839174954	0.5396006024280515	1.0698473617930233	0.30894351700278694	0.6065571985376567	1.4770788626798668	0.31252523794085213	0.7277720268416522	1.8937174291914936	0.27413795214147973	0.5486382088358467	1.9382448700533752	0.34032528921312327	0.5781081280016396	1.9307565485933538	0.29220243142207736	0.843793964115118	1.9670556886649133	0.10212825158643651	0.5283442351213642	1.056576890739091	0.10782847791921046	0.6358048516597863	1.5198003411444687	0.10466652391207674	0.743636733261039	1.8856971400441902	0.11663593497169893	0.5918254666403879	1.9441618951012511	0.06846084975080367	0.6235862036786561	1.9352669318841575	0.12001560194700386	0.7745230278793737	1.9247958740847007	0.2482093922462855	0.3969294504356124	0.49242393329057926	0.24488241266316607	0.3400482544595177	0.24626336912438987	0.2542590309342571	0.30158327616094327	0.3813140566615387	0.404702095328015	0.37062648012145044	0.5954549497291276	0.46889365059314714	0.21148541911983285	0.7783220436244755	0.3399849435439353	0.060674632091997874	0.690653645871398	0.24688894847454163	0.12741821795188854	0.6413373274615498	0.2241809484848633	0.07613598586631244	0.6375358743533308	0.23524308370215863	0.06225302679974145	0.6858411819012817	0.07856892711062555	0.4527807331503855	0.5903071555392814	0.005311877651616158	0.44443004620511817	0.8468385448354907	0.043737889523951475	0.3920194510228385	1.071803048027563	0.10517049414878964	0.3740337412390692	1.1657213899210366	0.09505569890807261	0.37182605446502176	1.1930445946008899	0.022712978368806626	0.38091676495074034	1.1952836673206013
45	0.9375	0.3343308114526613	0.5220470605154283	1.0592163345149974	0.30966662664564487	0.6046873772348559	1.4719941573878899	0.31259137914127416	0.7276916411483565	1.8935363526880715	0.2741179329304791	0.5481556158533809	1.9381804062213395	0.3403323628943884	0.5775226760930661	1.930918845080918	0.29223173819278603	0.8435498537017582	1.9668840349287164	0.11716985121106353	0.4825356273685218	1.041903947310215	0.10712370696869722	0.6285620514964078	1.5039959778281708	0.1032572194943063	0.7423943676166045	1.8762864728805022	0.11581383232510352	0.5892380456411449	1.9386907307180552	0.06364144758886686	0.6379483185645216	1.9414293645022052	0.12677819959533457	0.7918590235907141	1.9223072225280151	0.24860703275857432	0.3985001424093961	0.49614513818945644	0.2449844427749904	0.33961938382788565	0.24637664064991474	0.25410003101984335	0.30173562233276685	0.38137153078711683	0.4013164746507092	0.3851044637356497	0.59206291418128	0.4726146085809205	0.20985609569555574	0.7705543157925665	0.33568424611545444	0.05937417060867455	0.6861557148649255	0.26294304856480705	0.08866034603081084	0.6309719180374466	0.23249564554717733	0.05222347974459606	0.6493426853289254	0.2575184353367125	-0.026257898593882556	0.7016876094813322	0.07863590464547401	0.45279604259502426	0.5903677174934306	0.005490956592488151	0.4472308892849299	0.8471790466619527	0.03395397768886144	0.4181935223685625	1.0759054883373367	0.09989330403606426	0.3918876990796578	1.1693720509434369	0.08442327555064837	0.3994334545641928	1.1901030782785398	0.011050648454154951	0.3930577355354457	1.1817891136660104
